<?xml version="1.0" encoding="UTF-8"?>
<svg width="702px" height="129px" viewBox="0 0 702 129" version="1.1" xmlns="http://www.w3.org/2000/svg" xmlns:xlink="http://www.w3.org/1999/xlink">
    <!-- Generator: Sketch 57.1 (83088) - https://sketch.com -->
    <title>Logo</title>
    <desc>Created with Sketch.</desc>
    <defs>
        <linearGradient x1="13.5389398%" y1="27.4208235%" x2="89.1156741%" y2="58.7819687%" id="linearGradient-1">
            <stop stop-color="#0006A5" offset="0%"></stop>
            <stop stop-color="#200061" offset="100%"></stop>
        </linearGradient>
        <linearGradient x1="13.5389398%" y1="44.1425%" x2="89.1156741%" y2="52.2782222%" id="linearGradient-2">
            <stop stop-color="#0006A5" offset="0%"></stop>
            <stop stop-color="#200061" offset="100%"></stop>
        </linearGradient>
    </defs>
    <g id="Page-1" stroke="none" stroke-width="1" fill="none" fill-rule="evenodd">
        <g id="Artboard" transform="translate(-156.000000, -162.000000)">
            <g id="Logo" transform="translate(150.500000, 158.000000)">
                <g id="bacon" transform="translate(256.500000, 70.000000) rotate(-90.000000) translate(-256.500000, -70.000000) translate(186.500000, -22.000000)" fill-rule="nonzero">
                    <g id="Lardon-2" transform="translate(75.030680, 119.126387) rotate(82.000000) translate(-75.030680, -119.126387) translate(17.530680, 62.126387)">
                        <path d="M112.952824,26.1325229 C114.355702,27.5595388 114.515212,29.811212 113.299453,31.4011105 C109.04174,36.9678044 110.907812,40.4836109 104.560097,46.7489586 C97.2859923,53.9291124 93.7767529,50.3600361 86.5026476,57.5401902 C79.229565,64.7193197 82.7398268,68.2883958 75.4667442,75.4675253 C68.1936615,82.6466548 64.6844222,79.0775787 57.4113395,86.2567082 C50.1382566,93.4368621 53.6485187,97.0059385 46.3754359,104.185068 C40.0277208,110.450416 36.5460891,108.528605 30.9284429,112.711309 C29.3241316,113.905781 27.0787092,113.713191 25.6758315,112.28515 L1.16228114,87.3600076 C-0.640396385,85.5273218 -0.30194695,82.4837724 1.87087749,81.1130994 C6.81162479,77.9957921 10.2319061,79.2199728 16.1133586,73.4135649 C23.3864413,66.2344354 19.8772019,62.6653591 27.1502847,55.4862296 C34.4223449,48.3071 37.9326068,51.8761764 45.2056894,44.6970469 C52.4787723,37.5179174 48.9685102,33.948841 56.2415931,26.7697115 C63.5146757,19.5895577 67.0249375,23.158634 74.2980201,15.9784802 C80.1804951,10.1720723 79.0097262,6.72695061 82.1948314,1.82408036 C83.5956642,-0.332321921 86.6365959,-0.626330287 88.4392734,1.20738015 L112.952824,26.1325229 Z" id="Path" fill="#EA4444"></path>
                        <path d="M113.303343,31.4371915 C109.063121,37.0034171 110.920509,40.5155868 104.599891,46.7791265 C97.3546523,53.9550112 93.8598301,50.3885719 86.616628,57.5644566 C79.3744441,64.7403413 82.8672298,68.3078045 75.6250459,75.4836892 C68.382862,82.6605978 64.8870216,79.0931348 57.6448378,86.2700434 C50.4026539,93.4459281 53.8954393,97.0133913 46.6532554,104.189276 C40.3336558,110.452816 36.8642912,108.53085 31.2707426,112.711663 C29.670986,113.905596 27.4378436,113.713092 26.0397108,112.285697 L22.308642,108.478628 C23.7027012,109.537399 25.6537735,109.584501 27.0926382,108.511395 C32.6872047,104.330582 36.1555511,106.252547 42.4761691,99.9890078 C49.718353,92.8131231 46.2245491,89.2456598 53.4677513,82.0697751 C60.7099351,74.8928666 64.2057755,78.4603298 71.4479594,71.2844451 C78.6931983,64.1075365 75.1973579,60.5410972 82.4395418,53.3641886 C89.6817257,46.1883039 93.177566,49.7557671 100.422805,42.5788583 C106.742404,36.3153186 104.885016,32.8031491 109.126256,27.2369235 C110.337021,25.6487674 110.177147,23.3981119 108.780033,21.9707169 L88.0931701,0.859813084 C88.2499889,0.978591997 88.4027348,1.11170617 88.5452975,1.25813196 L112.956101,26.169961 C114.354233,27.5983799 114.514107,29.8490354 113.303343,31.4371915 Z" id="Path" fill="#D93131"></path>
                        <path d="M105.537037,18.9277656 C98.3001998,26.0916293 101.792968,29.6531165 94.5551136,36.8180024 C87.3182763,43.9828882 83.8255076,40.4214012 76.5886704,47.5852649 C69.3518331,54.7501507 72.8446015,58.3116377 65.6077643,65.4755013 C58.3709267,72.639365 54.8781583,69.077878 47.6423384,76.2417416 C40.4055011,83.4056053 43.8972522,86.9670923 36.6604149,94.130956 C29.424595,101.29482 25.9318265,97.7333326 18.694989,104.897196 L7.72222222,93.7077484 C14.9590595,86.5438847 18.4508106,90.1053718 25.6876481,82.9415081 C32.9244854,75.7776444 29.4327343,72.2161574 36.6695716,65.0522938 C43.9053915,57.8884301 47.39816,61.4499171 54.6349972,54.2860535 C61.8718348,47.1211677 58.379066,43.5607028 65.6159036,36.3958167 C72.8527408,29.2319531 76.3455093,32.7934403 83.5823468,25.6285543 C90.8202014,18.4636684 87.327433,14.9032036 94.5642702,7.73831776 L105.537037,18.9277656 Z" id="Path" fill="#FDD79B"></path>
                        <path d="M105.537037,18.9278836 C98.2825728,26.0918226 101.783357,29.6533471 94.529912,36.8172861 C87.2754478,43.9822473 83.7746638,40.4207229 76.5212192,47.5846619 C69.2687944,54.7496231 72.7675388,58.3101254 65.514094,65.4750866 C58.2616691,72.6390256 54.7608853,69.0775011 47.5084605,76.2424626 C40.2560356,83.4064016 43.7537603,86.9679259 36.5013355,94.1318649 C29.2489106,101.29376 25.7481268,97.7332572 18.495702,104.897196 L13.7283951,100.046613 C20.9563461,92.929697 24.4571298,96.4656653 31.6983374,89.3160379 C38.9507623,82.1520989 35.4520179,78.5915966 42.7044428,71.4266354 C49.9578876,64.2626964 53.4586713,67.8231984 60.7110962,60.6592594 C67.9635211,53.4942982 64.4657966,49.9337961 71.7182215,42.7688347 C78.9706463,35.6048956 82.4714301,39.1664201 89.726914,32.0014589 C96.9793389,24.8375199 93.4785551,21.2759954 100.734039,14.1120564 L94.5033988,7.77205199 C94.5135961,7.75978524 94.525833,7.75058478 94.53807,7.73831776 L105.537037,18.9278836 Z" id="Path" fill="#FCCD7F"></path>
                    </g>
                    <g id="Lardon-1" transform="translate(69.840318, 70.469140) rotate(44.000000) translate(-69.840318, -70.469140) translate(35.840318, 5.969140)">
                        <path d="M62.8860017,7.37645489 C64.8457919,7.79327938 66.2206162,9.59231478 66.0812898,11.599248 C65.5915982,18.6276305 69.0901262,20.5388483 67.2389284,29.3137771 C65.1193226,39.3679974 60.2172857,38.3254215 58.0976798,48.3796416 C55.9770493,58.4338616 60.8790862,59.4764376 58.7584559,69.5306579 C56.63885,79.5838489 51.7368131,78.5412727 49.617207,88.5944636 C47.4965767,98.6486837 52.3986136,99.6912599 50.2779833,109.74548 C48.42781,118.51938 44.4590555,118.841518 42.0689921,125.464397 C41.3867025,127.35709 39.4033496,128.440833 37.4435593,128.02298 L3.21023299,120.737298 C0.693136709,120.201087 -0.702176497,117.463424 0.35813877,115.108623 C2.76766665,109.753714 6.30205052,108.880955 8.01699497,100.750303 C10.1366011,90.697112 5.23558863,89.653507 7.35519451,79.600316 C9.47582478,69.5460957 14.3768373,70.589701 16.4974678,60.5354807 C18.6170737,50.4822897 13.7160612,49.4386847 15.8356671,39.3844646 C17.9562976,29.3302442 22.8583345,30.3738496 24.9779406,20.3196295 C26.6928851,12.1879481 23.814155,9.95047515 23.7731767,4.07273414 C23.7547363,1.48842205 26.1345549,-0.446467284 28.6516509,0.0897440016 L62.8860017,7.37645489 Z" id="Path" fill="#EA4444"></path>
                        <path d="M66.0927878,11.5906029 C65.6063149,18.6215424 69.0798124,20.5318665 67.2438355,29.3063883 C65.1361258,39.3623507 60.266309,38.3197008 58.1606349,48.3736046 C56.0549605,58.4275083 60.9227419,59.4722166 58.8170678,69.5261203 C56.7113937,79.5810535 51.8425946,78.5384034 49.7369202,88.5923072 C47.631246,98.6462109 52.4980096,99.6909194 50.3923354,109.744823 C48.5563585,118.519345 44.6106366,118.841507 42.2373005,125.464855 C41.5594955,127.357682 39.5912141,128.441502 37.6443051,128.02259 L32.4457629,126.909949 C34.1891268,127.02111 35.8419131,125.973314 36.4525484,124.270903 C38.8258845,117.646525 42.7716064,117.325392 44.6075833,108.550871 C46.7132577,98.4969669 41.8464939,97.4522584 43.9521681,87.3983546 C46.0578422,77.3434217 50.9266413,78.387101 53.0323157,68.3321678 C55.1400254,58.2772349 50.2702084,57.2335558 52.3758825,47.179652 C54.4815569,37.1247188 59.3513737,38.1683982 61.4590834,28.1124357 C63.2960779,19.337914 59.8225807,17.4275899 60.3080357,10.3966504 C60.4464464,8.39060435 59.0796409,6.5914414 57.1327319,6.17355814 L28.3148148,0 C28.5112358,0.0123512331 28.7117279,0.0391123699 28.9101842,0.0813123505 L62.917484,7.36751068 C64.864393,7.78539393 66.2311985,9.58455689 66.0927878,11.5906029 L66.0927878,11.5906029 Z" id="Path" fill="#D93131"></path>
                        <path d="M52.8504765,4.99464208 C50.7301058,15.0397381 55.6305176,16.0823964 53.5111716,26.1274924 C51.3908012,36.1725884 46.4903894,35.1299304 44.3700188,45.1750264 C42.2506727,55.2201227 47.1510845,56.2627807 45.0317384,66.3078768 C42.9113678,76.3519446 38.010956,75.3092866 35.8905856,85.3543826 C33.7712395,95.3984504 38.6716513,96.4411087 36.552305,106.485177 C34.4319346,116.530273 29.5304983,115.487614 27.4111522,125.53271 L12.0123457,122.257694 C14.132716,112.212598 19.0331278,113.255257 21.1534985,103.211189 C23.2728446,93.1660925 18.3724328,92.1234345 20.4917788,82.0793667 C22.6121495,72.0342707 27.5125613,73.0769287 29.6329319,63.0328608 C31.752278,52.9877648 26.8518662,51.9451065 28.9712123,41.9010387 C31.0915829,31.8549145 35.993019,32.8975725 38.1123651,22.8524765 C40.2327354,12.8073805 35.3312993,11.7647222 37.45167,1.71962617 L52.8504765,4.99464208 Z" id="Path" fill="#FDD79B"></path>
                        <path d="M52.8454256,4.99366826 C50.7149877,15.0399596 55.6373177,16.0816067 53.5089373,26.1268696 C51.3784994,36.1721324 46.4561697,35.1304853 44.3277891,45.17472 C42.1994087,55.2199831 47.1196812,56.2626584 44.9913008,66.3079213 C42.8629202,76.3521559 37.9405904,75.3105088 35.8122101,85.3547435 C33.6838297,95.3989781 38.6041019,96.4426819 36.4757215,106.486917 C34.3463123,116.530123 29.4239826,115.488476 27.2956022,125.53271 L20.5925926,124.112656 C22.7261164,114.120864 27.6350733,115.141945 29.7613962,105.117248 C31.8897768,95.0730136 26.9695043,94.0293098 29.0978847,83.9850751 C31.2262651,73.9398122 36.1475662,74.9824876 38.2759468,64.9372247 C40.4043272,54.8929901 35.4850833,53.8492863 37.6134637,43.8050516 C39.7418443,33.7597887 44.6631454,34.8024643 46.7935833,24.756173 C48.9219637,14.7119384 43.9996337,13.669263 46.1300716,3.6239999 L37.3696618,1.76795537 C37.3706907,1.7515029 37.3758342,1.73710685 37.3789203,1.71962617 L52.8454256,4.99366826 Z" id="Path" fill="#FCCD7F"></path>
                    </g>
                </g>
                <text id="Cla" fill="url(#linearGradient-1)" font-family="Rockwell-Bold, Rockwell" font-size="110" font-weight="bold" letter-spacing="-2.912245">
                    <tspan x="0.207722969" y="99">Cla</tspan>
                </text>
                <text id="ardons" fill="url(#linearGradient-2)" font-family="Rockwell-Bold, Rockwell" font-size="110" font-weight="bold" letter-spacing="-2.912245">
                    <tspan x="332.003825" y="99">ardons</tspan>
                </text>
            </g>
        </g>
    </g>
</svg>